# xmcd CD database file
#
# Track frame offsets:
#	150
#	17650
#	37108
#	55575
#	74035
#	86913
#	102993
#	119913
#	137798
#	154515
#	172755
#	190848
#	211010
#	229240
#	243453
#	261415
#	278745
#
# Disc length: 4003 seconds
#
# Revision: 1
# Processed by: cddbd v1.5.1PL2 Copyright (c) Steve Scherf et al.
# Submitted via: CDex 1.51
#
DISCID=f70fa111
DTITLE=高橋洋樹　 他 - ドラゴンボール 全曲集
DYEAR=1900
DGENRE=Anime
TTITLE0=高橋洋樹／摩訶不思議アドベンチャー！
TTITLE1=橋本 潮／Mr．ドリームを探せ
TTITLE2=高橋洋樹／青き旅人たち
TTITLE3=Wonderland Gang／不思議ワンダーランド
TTITLE4=宮内幸早／武天老師の教え
TTITLE5=野沢雅子／孫悟空ソング
TTITLE6=古谷 徹／ウルフ ハリケーン
TTITLE7=Wonderland Gang／風を感じて
TTITLE8=高橋洋樹／めざせ 天下一
TTITLE9=橋本 潮／夢をおしえて
TTITLE10=Wonderland Gang／レッド リボン アーミー
TTITLE11=山野さと子／初恋は雲にのって
TTITLE12=Wonderland Gang／燃えるハートで 〜レッドリボン軍をやっつけろ〜
TTITLE13=悟空のGOKIGENジャーニー／悟空のGOKIGENジャーニー
TTITLE14=高橋洋樹／ドラゴンボール伝説
TTITLE15=橋本 潮／ロマンティックあげるよ
TTITLE16=高橋洋樹／摩訶不思議アドベンチャー！(ニュー・リミックス・ロング・ヴァージョン)
EXTD=
EXTT0=
EXTT1=
EXTT2=
EXTT3=
EXTT4=
EXTT5=
EXTT6=
EXTT7=
EXTT8=
EXTT9=
EXTT10=
EXTT11=
EXTT12=
EXTT13=
EXTT14=
EXTT15=
EXTT16=
PLAYORDER=
